<?xml version="1.0" encoding="UTF-8"?>
<svg id="Layer_2" data-name="Layer 2" xmlns="http://www.w3.org/2000/svg" xmlns:xlink="http://www.w3.org/1999/xlink" viewBox="0 0 48.4 48.4">
  <defs>
    <style>
      .cls-1 {
        fill: #fff;
      }

      .cls-2 {
        fill: url(#Degradado_sin_nombre_2);
      }
    </style>
    <linearGradient id="Degradado_sin_nombre_2" data-name="Degradado sin nombre 2" x1="9.34" y1="-1.54" x2="39.06" y2="49.94" gradientUnits="userSpaceOnUse">
      <stop offset="0" stop-color="#e6332a"/>
      <stop offset="1" stop-color="#e94e1b"/>
    </linearGradient>
  </defs>
  <g id="Layer_1-2" data-name="Layer 1">
    <g>
      <path class="cls-2" d="M39.31,0H9.09C4.09,0,0,4.09,0,9.09v30.22c0,5,4.09,9.09,9.09,9.09h30.22c5,0,9.09-4.09,9.09-9.09V9.09c0-5-4.09-9.09-9.09-9.09h0Z"/>
      <g>
        <rect class="cls-1" x="22.21" y="18.69" width="2.06" height="6.22"/>
        <rect class="cls-1" x="27.89" y="18.69" width="2.06" height="6.22"/>
        <path class="cls-1" d="M14.44,12.47l-1.55,4.13v16.55h5.7v3.15h3.09l3.15-3.15h4.65l6.17-6.17v-14.51H14.44ZM33.6,25.93l-3.65,3.65h-5.67l-3.1,3.1v-3.1h-4.67v-15.04h17.08v11.39Z"/>
      </g>
    </g>
  </g>
</svg>