<?xml version="1.0" encoding="UTF-8"?>
<svg id="Layer_2" data-name="Layer 2" xmlns="http://www.w3.org/2000/svg" xmlns:xlink="http://www.w3.org/1999/xlink" viewBox="0 0 48.4 48.4">
  <defs>
    <style>
      .cls-1 {
        fill: #fff;
      }

      .cls-2 {
        fill: url(#Degradado_sin_nombre_2);
      }
    </style>
    <linearGradient id="Degradado_sin_nombre_2" data-name="Degradado sin nombre 2" x1="9.34" y1="-1.54" x2="39.06" y2="49.94" gradientUnits="userSpaceOnUse">
      <stop offset="0" stop-color="#e6332a"/>
      <stop offset="1" stop-color="#e94e1b"/>
    </linearGradient>
  </defs>
  <g id="Layer_1-2" data-name="Layer 1">
    <g>
      <path class="cls-2" d="M39.31,0H9.09C4.09,0,0,4.09,0,9.09v30.22c0,5,4.09,9.09,9.09,9.09h30.22c5,0,9.09-4.09,9.09-9.09V9.09c0-5-4.09-9.09-9.09-9.09h0Z"/>
      <g>
        <path class="cls-1" d="M12.22,19.58c.03-1.55.27-3.07,1.15-4.4.81-1.23,1.93-2.07,3.34-2.54,1.38-.46,2.8-.47,4.22-.47,2.73,0,5.47,0,8.2.03,1.54.01,3.01.34,4.3,1.2,1.46.98,2.36,2.36,2.65,4.08.18,1.02.26,2.06.27,3.09.01,2.94-.02,5.88-.07,8.82-.02,1.29-.31,2.54-.99,3.66-.82,1.34-1.98,2.24-3.49,2.72-1.37.44-2.77.46-4.18.46-2.68,0-5.36,0-8.05-.02-1.41,0-2.78-.25-4.02-.95-1.45-.82-2.42-2.03-2.91-3.63-.34-1.08-.4-2.18-.45-3.3,0-.2-.03-6.51.02-8.76ZM14.57,30.08c.12,1.16.61,2.19,1.58,2.94.95.73,2.07.96,3.2.98,3.61.09,7.22.22,10.83-.11.81-.07,1.55-.36,2.21-.85,1.25-.93,1.68-2.28,1.72-3.73.07-2.71.05-5.41.04-8.12,0-.97-.05-1.94-.15-2.9-.11-1.05-.54-1.98-1.35-2.7-.89-.8-1.98-1.11-3.14-1.13-2.94-.06-5.88-.1-8.82-.08-1.08,0-2.17.02-3.23.35-1.79.57-2.77,1.93-2.9,3.62-.16,2.11-.14,10.38,0,11.74Z"/>
        <path class="cls-1" d="M24.31,18.01c3.36-.03,6.22,2.74,6.2,6.23-.01,3.47-2.91,6.2-6.26,6.17-3.42-.03-6.24-2.82-6.2-6.26.04-3.44,2.82-6.18,6.25-6.13ZM28.3,24.25c.07-2.12-1.76-4.04-4-4.04-2.2,0-4.02,1.81-4.01,3.95,0,2.27,1.78,4.05,4.04,4.04,2.16,0,3.97-1.8,3.97-3.95Z"/>
        <path class="cls-1" d="M30.73,19.2c-.81.07-1.45-.65-1.47-1.42-.02-.79.69-1.48,1.48-1.47.82.01,1.5.69,1.47,1.48-.03.73-.62,1.48-1.49,1.41Z"/>
      </g>
    </g>
  </g>
</svg>