<?xml version="1.0" encoding="UTF-8"?>
<svg id="Layer_2" data-name="Layer 2" xmlns="http://www.w3.org/2000/svg" viewBox="0 0 33.25 36.83">
  <defs>
    <style>
      .cls-1 {
        fill: #fff;
      }
    </style>
  </defs>
  <g id="Layer_1-2" data-name="Layer 1">
    <g>
      <path class="cls-1" d="M15.98,36.8c-.34-.04-.98-.25-1.31-.38-1.83-.71-3.1-2.42-3.37-4.36H3.93c-4.93-.51-5.39-7.18-.41-8.25.34-.07,1.08,0,1.21-.38.3-3.79-.57-7.91.75-11.54,1.2-3.3,3.89-5.84,7.16-7.07-.28-1.69.43-3.4,1.93-4.26,3.1-1.77,6.72.87,6.02,4.32,4.45,1.56,7.58,5.91,7.91,10.6l.03,7.95c.12.38.86.3,1.21.38,4.94,1.07,4.54,7.67-.34,8.24h-7.43c-.23,1.6-1.12,3.09-2.51,3.94-.59.36-1.56.74-2.25.8-.31.03-.91.03-1.22,0ZM18.28,4.25c.13-2.52-3.53-2.44-3.31.07,1.09-.24,2.21-.14,3.31-.07ZM15.75,6.57c-3.39.27-6.5,2.58-7.84,5.68-1.46,3.4-.49,7.54-.78,11.16-.1,1.25-1.02,2.46-2.29,2.68-.66.11-1.12-.03-1.74.42-1.38.99-.68,3.09.96,3.2,8.52-.07,17.08.12,25.59-.09,1.35-.5,1.69-2.22.48-3.1-.61-.44-1.06-.31-1.72-.43-1.29-.24-2.2-1.38-2.3-2.66-.34-4.24.93-8.47-1.48-12.32-1.92-3.08-5.24-4.8-8.89-4.51ZM19.5,32.06h-5.75c.62,3.13,5.13,3.13,5.75,0Z"/>
      <path class="cls-1" d="M5.31,4.42c.93-.02,1.46.91,1.1,1.73-.15.34-.92,1.02-1.21,1.37-.93,1.15-1.78,2.65-2.29,4.04-.23.62-.32,1.33-.54,1.9-.47,1.24-2.42,1.01-2.28-.63.18-2.09,2.11-5.44,3.45-7.04.42-.5,1.08-1.36,1.77-1.38Z"/>
      <path class="cls-1" d="M27.83,4.4c.17-.01.36.03.52.09.74.29,2.41,2.64,2.86,3.39.71,1.19,1.8,3.53,1.95,4.88.18,1.63-1.76,1.96-2.26.75-.16-.4-.23-.98-.38-1.42-.52-1.53-1.24-2.96-2.22-4.25-.34-.45-1.28-1.31-1.46-1.7-.36-.77.13-1.67.98-1.74Z"/>
    </g>
  </g>
</svg>