<?xml version="1.0" encoding="UTF-8"?>
<svg id="Layer_2" data-name="Layer 2" xmlns="http://www.w3.org/2000/svg" xmlns:xlink="http://www.w3.org/1999/xlink" viewBox="0 0 48.9 48.9">
  <defs>
    <style>
      .cls-1 {
        fill: #fff;
      }

      .cls-2 {
        fill: url(#Degradado_sin_nombre_2);
      }
    </style>
    <linearGradient id="Degradado_sin_nombre_2" data-name="Degradado sin nombre 2" x1="9.43" y1="-1.56" x2="39.46" y2="50.46" gradientUnits="userSpaceOnUse">
      <stop offset="0" stop-color="#e6332a"/>
      <stop offset="1" stop-color="#e94e1b"/>
    </linearGradient>
  </defs>
  <g id="Layer_1-2" data-name="Layer 1">
    <g>
      <path class="cls-2" d="M39.71,0H9.18C4.13,0,0,4.13,0,9.18v30.53c0,5.05,4.13,9.18,9.18,9.18h30.53c5.05,0,9.18-4.13,9.18-9.18V9.18c0-5.05-4.13-9.18-9.18-9.18h0Z"/>
      <path class="cls-1" d="M33.48,14.87H15.41c-2.88,0-5.21,2.33-5.21,5.21v9.23c0,2.88,2.33,5.21,5.21,5.21h18.07c2.88,0,5.21-2.33,5.21-5.21v-9.23c0-2.88-2.33-5.21-5.21-5.21ZM21.74,28.2v-7.2l7.1,3.6-7.1,3.6Z"/>
    </g>
  </g>
</svg>