<?xml version="1.0" encoding="UTF-8"?>
<svg id="Layer_2" data-name="Layer 2" xmlns="http://www.w3.org/2000/svg" xmlns:xlink="http://www.w3.org/1999/xlink" viewBox="0 0 48.4 48.4">
  <defs>
    <style>
      .cls-1 {
        fill: #fff;
      }

      .cls-2 {
        fill: url(#Degradado_sin_nombre_2);
      }
    </style>
    <linearGradient id="Degradado_sin_nombre_2" data-name="Degradado sin nombre 2" x1="9.34" y1="-1.54" x2="39.06" y2="49.94" gradientUnits="userSpaceOnUse">
      <stop offset="0" stop-color="#e6332a"/>
      <stop offset="1" stop-color="#e94e1b"/>
    </linearGradient>
  </defs>
  <g id="Layer_1-2" data-name="Layer 1">
    <g>
      <path class="cls-2" d="M39.31,0H9.09C4.09,0,0,4.09,0,9.09v30.22c0,5,4.09,9.09,9.09,9.09h30.22c5,0,9.09-4.09,9.09-9.09V9.09c0-5-4.09-9.09-9.09-9.09h0Z"/>
      <g>
        <path class="cls-1" d="M24.4,11.76c-6.61,0-11.98,5.37-11.98,11.98,0,2.25.62,4.42,1.8,6.31l-2.07,6.56,6.89-2.16c1.66.83,3.5,1.27,5.37,1.27,6.61,0,11.98-5.37,11.98-11.98s-5.37-11.98-11.98-11.98ZM24.4,33.69c-1.67,0-3.32-.42-4.78-1.22l-.38-.21-3.98,1.25,1.19-3.77-.28-.41c-1.12-1.65-1.72-3.58-1.72-5.59,0-5.49,4.46-9.95,9.95-9.95s9.95,4.46,9.95,9.95-4.46,9.95-9.95,9.95Z"/>
        <path class="cls-1" d="M29.4,26.07l-1.26-.59c-.47-.22-1.04-.08-1.35.35l-.21.29c-.32.44-.91.61-1.4.39-1.8-.82-2.84-2.3-3.3-3.08-.17-.3-.13-.67.1-.92l.2-.22c.37-.39.47-.96.26-1.46l-.56-1.32c-.41-.97-1.69-1.23-2.42-.47-.58.6-1.04,1.42-.82,2.44.51,2.33,2.77,4.87,3.54,5.57.77.7,2.65,2.15,5.21,2.48,1.06.14,1.87-.3,2.45-.86.82-.78.57-2.14-.45-2.62Z"/>
      </g>
    </g>
  </g>
</svg>