<?xml version="1.0" encoding="UTF-8"?>
<svg id="Layer_2" data-name="Layer 2" xmlns="http://www.w3.org/2000/svg" viewBox="0 0 32.31 30.01">
  <defs>
    <style>
      .cls-1 {
        fill: #fff;
      }
    </style>
  </defs>
  <g id="Layer_1-2" data-name="Layer 1">
    <g id="Yvb5RI.tif">
      <g>
        <path class="cls-1" d="M32.31,13.4l-3.84.1c-.02-.08-.14-.23-.14-.27v-4.5l-1.99,4.74c-.16.1-3.31.11-3.7.06-.13-.02-.26,0-.35-.12l-1.93-4.8v4.74l-.18.18h-3.69V.23c.19-.15.41-.16.64-.18.71-.06,2.38-.09,3.05,0,.16.02.31.02.41.17l3.62,8.72L28.01.21C28.27,0,31.14.02,31.67.05c.27.02.44.05.64.24v13.1Z"/>
        <path class="cls-1" d="M5.98,30.01c-.19-.2-.22-.37-.24-.64-.33-3.97.27-8.4,0-12.42l.18-.4h10.18l.18.18v2.92l-.18.18h-6.14v1.75h6.2c-.04.11.12.25.12.29v2.81l-.18.18h-6.14v1.75h6.03c.09,0,.26.28.29.41.07.39.06,2.03.01,2.46-.04.31-.13.36-.36.52H5.98Z"/>
        <path class="cls-1" d="M18.27,30.01l-.35-.4,4.67-6.3-4.56-6.1c-.11-.15-.17-.39-.06-.54.16-.22,3.5-.1,4.04-.05l2.87,3.68,2.93-3.74h3.98s.2.19.18.29l-4.68,6.44,4.63,6.15-.18.58h-3.98l-2.92-3.63-2.69,3.63h-3.86Z"/>
        <path class="cls-1" d="M.18,13.52c-.22-.07-.22-.52-.12-.71,1.96-3.84,3.54-7.88,5.46-11.74.32-.63.3-.94,1.09-1.02.48-.04,3.21-.06,3.43.15l6,13.02c.02.1-.12.28-.17.28h-3.63c-.51-.38-.53-1.68-1.16-1.76l-6.31.03-.96,1.74H.18ZM9.72,8.25l-1.7-3.98-1.7,3.98h3.39Z"/>
      </g>
    </g>
  </g>
</svg>