<?xml version="1.0" encoding="UTF-8"?>
<svg id="Layer_2" data-name="Layer 2" xmlns="http://www.w3.org/2000/svg" viewBox="0 0 92.88 23.46">
  <defs>
    <style>
      .cls-1 {
        fill: #fff;
      }
    </style>
  </defs>
  <g id="Layer_1-2" data-name="Layer 1">
    <g>
      <g>
        <path class="cls-1" d="M91.96,3.42c-.61-.77-1.55-1.16-2.8-1.16s-2.19.39-2.8,1.16c-.62.77-.92,1.68-.92,2.73s.31,1.98.92,2.74c.61.76,1.55,1.14,2.8,1.14s2.19-.38,2.8-1.14c.62-.76.92-1.67.92-2.74s-.31-1.96-.92-2.73ZM90.44,7.84c-.3.4-.73.59-1.28.59s-.99-.2-1.29-.59c-.3-.4-.45-.96-.45-1.69s.15-1.29.45-1.69.73-.59,1.29-.59.98.2,1.28.59c.3.39.45.96.45,1.69s-.15,1.29-.45,1.69h0Z"/>
        <path class="cls-1" d="M76.24,2.77c-.62-.32-1.34-.48-2.14-.48-1.23,0-2.11.32-2.62.96-.32.41-.5.94-.54,1.58h1.85c.04-.28.14-.51.27-.67.19-.22.51-.33.97-.33.41,0,.72.06.93.17.21.11.32.32.32.62,0,.25-.14.43-.41.54-.15.07-.41.12-.76.17l-.65.08c-.74.09-1.31.25-1.69.47-.7.4-1.05,1.05-1.05,1.95,0,.69.22,1.23.65,1.61.43.38.98.54,1.65.57,4.17.19,4.13-2.2,4.16-2.69v-2.74c0-.88-.31-1.48-.94-1.8h0ZM75.27,6.94c-.01.64-.2,1.08-.55,1.32-.35.24-.74.36-1.15.36-.26,0-.49-.07-.67-.22-.18-.15-.28-.38-.28-.71,0-.37.15-.64.45-.81.18-.1.47-.19.88-.26l.44-.08c.22-.04.39-.09.51-.13.13-.04.25-.11.37-.18v.71h0Z"/>
        <path class="cls-1" d="M66.72,3.93c.48,0,.83.15,1.05.44.15.22.25.46.29.74h2.06c-.11-1.04-.48-1.76-1.09-2.17-.62-.41-1.4-.61-2.37-.61-1.13,0-2.02.35-2.67,1.04-.64.7-.97,1.67-.97,2.92,0,1.11.29,2.01.88,2.7.58.69,1.49,1.04,2.73,1.04s2.17-.42,2.8-1.25c.4-.52.62-1.07.66-1.64h-2.05c-.04.38-.16.7-.36.94-.2.24-.53.36-1,.36-.66,0-1.12-.3-1.36-.91-.13-.32-.2-.75-.2-1.29s.07-1.01.2-1.35c.25-.64.71-.96,1.39-.96h0Z"/>
        <path class="cls-1" d="M62.42,4.26c.09,0,.2.01.32.03v-1.95c-.08,0-.14,0-.16-.01-.02,0-.05,0-.09,0-4.23,0-3.98,3.74-3.98,3.74v3.8h1.92v-3.57c0-.59.07-1.02.22-1.3.26-.5.78-.75,1.55-.75.06,0,.13,0,.23,0h0Z"/>
        <path class="cls-1" d="M51.5,9.15c.74.6,1.6.9,2.57.9,1.17,0,2.09-.36,2.74-1.06.35-.37.57-.74.67-1.11h-2.04c-.08.12-.17.21-.26.29-.27.22-.64.29-1.07.29-.41,0-.73-.06-1.02-.24-.48-.29-.75-.79-.78-1.52h5.31c0-.63-.01-1.11-.06-1.45-.09-.57-.28-1.07-.58-1.51-.33-.49-.75-.85-1.26-1.08-.51-.23-1.08-.34-1.71-.34-1.07,0-1.94.34-2.61,1.01-.67.67-1,1.64-1,2.91,0,1.35.37,2.32,1.11,2.92h0ZM52.86,4.31c.27-.28.65-.42,1.14-.42.45,0,.83.13,1.13.39.3.26.47.65.51,1.15h-3.28c.07-.47.24-.85.51-1.13h0Z"/>
        <path class="cls-1" d="M47.86,5.45v4.41h1.75v-4.37c0-1.88-1.13-3.2-3.04-3.2-.89,0-1.66.39-2.18,1.02-.49-.63-1.25-1.02-2.18-1.02-1.87,0-3.08,1.38-3.08,3.2v4.37h1.75v-4.41c0-.81.54-1.36,1.33-1.36,1.16,0,1.28.96,1.28,1.36v4.41h1.75v-4.41c0-.81.56-1.36,1.33-1.36,1.16,0,1.29.96,1.29,1.36h0Z"/>
        <path class="cls-1" d="M82.93,1.36v2.06c-.22-.34-.49-.61-.84-.81-.34-.19-.73-.29-1.18-.29-.96,0-1.72.36-2.3,1.07-.57.71-.86,1.74-.86,2.99,0,1.08.29,1.96.87,2.65.58.69,1.72.99,2.74.99,3.53,0,3.49-3.03,3.49-3.03V.02s-1.93-.21-1.93,1.35h0ZM82.56,7.85c-.28.4-.69.6-1.23.6s-.94-.2-1.21-.61c-.27-.4-.4-.99-.4-1.66,0-.63.13-1.15.39-1.57.26-.42.67-.63,1.23-.63.37,0,.69.12.96.35.45.38.68,1.07.68,1.96,0,.64-.14,1.16-.42,1.56h0Z"/>
        <path class="cls-1" d="M43.18,12.8c-1.58-.07-2.38.3-2.9.7-.72.55-1.16,1.36-1.16,2.66v6.67h.93c.25,0,.5-.09.68-.25.21-.19.31-.42.31-.69v-2.49c.23.39.52.68.9.86.36.17.77.25,1.24.25.88,0,1.61-.35,2.17-1.06.56-.73.85-1.67.85-2.84s-.27-2-.91-2.78c-.52-.63-1.3-.98-2.12-1.02h0ZM43.84,18.27c-.28.39-.67.59-1.16.59-.53,0-.93-.19-1.21-.59-.28-.35-.42-.88-.42-1.59,0-.76.13-1.32.39-1.67.28-.39.68-.59,1.19-.59s.93.2,1.21.59c.28.39.42.95.42,1.67,0,.67-.14,1.2-.42,1.59Z"/>
        <path class="cls-1" d="M59.66,13.49c-.65-.49-1.32-.75-2.46-.72-1.16.03-2.01.36-2.53,1.07-.53.71-.79,1.65-.79,2.79,0,.98.2,1.77.59,2.38.4.6.87,1.01,1.43,1.23.55.22,1.11.27,1.67.14.56-.13,1.01-.45,1.34-.97v.47c-.04.59-.18,1.04-.43,1.34-.25.29-.53.48-.83.54-.3.06-.61.03-.91-.11-.31-.14-.53-.34-.68-.6h-2.02c.52,1.57,1.46,2.27,3.16,2.39,2.73.2,3.6-2.12,3.6-3.36v-3.92c0-1.3-.42-2.13-1.14-2.67h0ZM58.86,17.34c-.07.43-.19.75-.36.96-.35.48-.9.65-1.63.52-.74-.14-1.11-.85-1.11-2.13,0-.59.11-1.12.33-1.59.22-.46.65-.69,1.27-.69.46,0,.81.17,1.05.5.24.33.39.71.46,1.14.06.43.06.86-.01,1.29h0Z"/>
        <path class="cls-1" d="M52.24,13.29c-.62-.31-1.34-.48-2.14-.48-1.23,0-2.11.32-2.61.97-.32.41-.5.94-.54,1.58h1.85c.04-.28.14-.51.27-.67.19-.22.51-.34.97-.34.41,0,.72.06.93.17.21.11.31.32.31.62,0,.25-.14.43-.41.54-.15.07-.41.12-.76.17l-.65.08c-.74.09-1.31.25-1.69.47-.7.4-1.05,1.05-1.05,1.95,0,.69.22,1.23.65,1.61.43.38.98.54,1.65.57,4.17.19,4.12-2.2,4.16-2.69v-2.74c0-.88-.31-1.48-.93-1.8h0ZM51.27,17.46c-.01.64-.2,1.08-.55,1.32-.35.24-.74.36-1.15.36-.26,0-.49-.07-.67-.22-.18-.15-.28-.38-.28-.71,0-.37.15-.64.45-.81.18-.1.47-.19.88-.26l.44-.08c.22-.04.39-.08.51-.13.13-.05.25-.11.37-.18v.71h0Z"/>
        <path class="cls-1" d="M65.25,12.74c-1.25,0-2.18.38-2.8,1.16-.62.77-.92,1.68-.92,2.73s.31,1.98.92,2.74c.61.76,1.55,1.14,2.8,1.14s2.19-.38,2.8-1.14c.61-.76.92-1.67.92-2.74s-.31-1.96-.92-2.73c-.62-.77-1.55-1.16-2.8-1.16h0ZM66.53,18.32c-.3.4-.73.6-1.28.6s-.99-.2-1.29-.6c-.3-.4-.45-.96-.45-1.69s.15-1.29.45-1.69c.3-.39.73-.59,1.29-.59s.98.2,1.28.59c.3.39.45.96.45,1.69s-.15,1.29-.45,1.69Z"/>
      </g>
      <g>
        <path class="cls-1" d="M33.89,10.94C33.84,4.84,26.21-.08,16.85,0,7.49.08-.05,5.12,0,11.23c0,.16,0,.59,0,.65.05,6.48,6.73,11.67,17.04,11.58,10.38-.09,16.9-5.39,16.85-11.87v-.65s0,0,0,0ZM17.04,21.5c-9,.08-16.33-4.53-16.38-10.29,0-.23.01-.46.03-.69l.1-.7c.02-.08.04-.15.06-.22.37.11.64.18.77.21,4.14.94,5.79,1.93,6.27,2.28.32-.29.74-.45,1.16-.45h0c.5,0,.96.21,1.29.58.52-.33,1.15-.41,1.8-.18.42.14.75.41.96.78.43-.14.91-.1,1.4.1.93.4,1.07,1.26,1.05,1.81,1.11.02,2,.93,2,2.05,0,.27-.05.53-.15.77.31.15.83.37,1.3.31.44-.06.57-.2.6-.24,0,0,0,0,0-.01l-1.25-1.38c-.22-.21-.27-.42-.14-.56.05-.06.13-.1.21-.1.15,0,.27.1.36.18.68.57,1.49,1.4,1.5,1.41l.02.02s.07.06.24.09c.06.01.12.02.19.02.13,0,.45-.02.68-.21.04-.04.09-.08.13-.13l.05-.06c.21-.27.01-.55-.03-.6l-1.52-1.71s-.06-.06-.11-.13c-.17-.22-.09-.37-.03-.43.06-.06.13-.09.21-.09.14,0,.26.09.38.19.41.34.96.88,1.49,1.41l.34.33s.24.15.52.15c.22,0,.45-.08.68-.23.32-.21.46-.46.45-.77-.02-.27-.25-.49-.25-.49l-2.09-2.1c-.22-.18-.28-.41-.16-.56.05-.07.14-.1.22-.1.14,0,.25.09.37.19.37.31,1.16,1.02,2.35,2.1.07.06.11.1.12.11,0,0,.22.15.54.15.21,0,.42-.07.63-.2.23-.14.36-.35.37-.58.02-.42-.27-.68-.28-.68-.56-.49-5.33-4.66-6.44-5.5-.64-.48-1-.61-1.37-.66-.04,0-.08,0-.12,0-.15,0-.34.03-.49.07-.57.15-1.31.68-1.83,1.1-.68.54-1.32,1.05-1.95,1.19-.2.04-.41.07-.63.07-.59,0-1.22-.16-1.58-.41-.2-.13-.34-.29-.42-.46-.19-.43.09-.78.22-.91l1.44-1.55.03-.03c-.21.05-.41.1-.63.17-.52.15-1.05.29-1.58.29h0c-.18,0-.36-.02-.53-.03h-.17c-.75-.06-3.14-.67-5.25-1.52,0,0,0,0,0,0l.58-.45C7.74,2.07,12.05.7,16.86.66c4.97-.04,9.42,1.34,12.43,3.56l.58.45s.07.07.11.1l-.19.09c-1.67.76-3.22,1.13-4.76,1.13h0c-1.47,0-2.94-.36-4.36-1.05-.16-.08-1.63-.74-3.12-.74-.04,0-.08,0-.12,0-2.37.05-3.4,1.08-4.49,2.17l-1.41,1.52s-.04.06-.05.07c.16.18.59.31,1.05.31.2,0,.39-.02.59-.06.43-.1,1.02-.57,1.59-1.02l.04-.03c.63-.5,1.29-1.02,1.96-1.23.29-.09.58-.14.85-.14h0c.29,0,.51.06.67.1.35.1.76.34,1.34.78.96.72,4.32,3.64,6.28,5.35,1.09-.48,3.85-1.61,7.24-2.37,0,0,0,0,0-.01,0,.02.01.05.02.07l.1.7c.01.17.02.35.02.52.05,5.76-7.21,10.48-16.21,10.56h0Z"/>
        <path class="cls-1" d="M15.54,15.49h0c-.19,0-.39.07-.52.11-.09.03-.15.05-.19.05h-.03l-.04-.02s-.04-.05-.05-.08c-.04-.06-.03-.15.04-.31,0,0,.21-.59.03-1.09-.09-.22-.25-.42-.54-.54-.2-.09-.39-.13-.57-.13-.39,0-.65.2-.76.32-.03.03-.07.06-.12.06-.02,0-.08,0-.11-.09-.01-.02-.02-.05-.03-.09,0-.08-.02-.21-.07-.35-.09-.23-.27-.48-.65-.59-.15-.05-.3-.07-.45-.07-.77,0-1.19.63-1.2.66l-.15.24v-.04s-.01,0-.01,0c-.03,0-.04-.28-.04-.28,0-.06-.02-.12-.04-.18-.14-.41-.53-.69-.97-.69-.57,0-1.03.46-1.04,1.04,0,.13.03.25.07.37.16.37.52.63.95.63.27,0,.48-.16.71-.29.06-.03.13-.04.15-.01.02.03.02.06.03.09.01.03.02.06.02.09-.02.14-.06.45.04.77.1.31.33.62.81.8.12.05.24.07.36.07.21,0,.42-.07.64-.23.05-.04.09-.06.13-.05.03,0,.07.01.09.04.02.02.03.05.03.08.02.04.02.08.01.12-.01.08-.02.2.02.34.07.22.26.47.7.65.15.06.3.09.43.09.29,0,.49-.15.65-.29.06-.05.1-.08.16-.08.08,0,.12.06.13.12.03.05.03.12.03.15,0,.16.04.31.1.46.21.45.67.76,1.2.76.73,0,1.33-.59,1.33-1.33,0-.17-.04-.34-.1-.49-.21-.47-.67-.8-1.21-.8h0Z"/>
      </g>
    </g>
  </g>
</svg>