<?xml version="1.0" encoding="UTF-8"?>
<svg id="Layer_2" data-name="Layer 2" xmlns="http://www.w3.org/2000/svg" viewBox="0 0 70.83 22.84">
  <defs>
    <style>
      .cls-1 {
        fill: #fff;
      }
    </style>
  </defs>
  <g id="Layer_1-2" data-name="Layer 1">
    <g id="_0Eyp4u.tif" data-name="0Eyp4u.tif">
      <g>
        <path class="cls-1" d="M0,.99c0-.07.1-.47.12-.53.02-.04.04-.06.09-.06h9.78c1.27.08,2.19.89,2.5,2.11l2.44,12.89L20.9.4h5.99l-9.31,22.08h-6.03S6.84,4.27,6.84,4.27c-.3-1.05-1.35-1.48-2.27-1.86C3.1,1.8,1.55,1.4,0,1.03c0-.01,0-.02,0-.04Z"/>
        <path class="cls-1" d="M50.32,22.48L58.97,1.84c.44-.85,1.25-1.37,2.21-1.44h5.02s4.63,22.08,4.63,22.08h-5.31l-.67-3.28h-7.35s-1.17,3.28-1.17,3.28h-6.01ZM59.17,14.66h4.72l-1.75-8.25-2.97,8.25Z"/>
        <path class="cls-1" d="M51.65.96l-1,4.68c-.93-.37-1.88-.71-2.87-.87-1.41-.24-3.86-.37-4.86.87-1.5,1.87,2.23,3.26,3.44,3.94,2.85,1.6,4.71,3.37,4.13,6.94-.83,5.09-6.52,6.58-10.96,6.29-1.77-.12-3.58-.45-5.22-1.12l1-4.85c1.43.7,2.95,1.23,4.56,1.36,1.39.12,4.02.04,4.64-1.52.77-1.95-2.23-3-3.51-3.69-2.36-1.27-4.5-3.02-4.35-5.97.17-3.39,2.81-5.65,5.9-6.52s6.21-.56,9.11.46Z"/>
        <polygon class="cls-1" points="35.05 .4 30.31 22.48 24.64 22.48 29.38 .4 35.05 .4"/>
      </g>
    </g>
  </g>
</svg>