<?xml version="1.0" encoding="UTF-8"?>
<svg id="Layer_2" data-name="Layer 2" xmlns="http://www.w3.org/2000/svg" viewBox="0 0 48.53 30">
  <defs>
    <style>
      .cls-1 {
        fill: #fff;
      }
    </style>
  </defs>
  <g id="Layer_1-2" data-name="Layer 1">
    <g id="surface1">
      <path class="cls-1" d="M24.27,3.21c-.19.15-.38.31-.57.47-3.16,2.75-5.16,6.8-5.16,11.32s2,8.57,5.16,11.32c.19.16.37.32.57.47.19-.15.38-.31.57-.47,3.16-2.75,5.16-6.8,5.16-11.32s-2-8.57-5.16-11.32c-.19-.16-.38-.32-.57-.47M33.54,0c-3.07,0-5.93.92-8.3,2.51.12.1.24.2.36.3,3.53,3.07,5.56,7.52,5.56,12.19s-2.03,9.12-5.56,12.19c-.12.1-.24.2-.36.3,2.38,1.58,5.23,2.51,8.3,2.51,8.28,0,15-6.72,15-15S41.82,0,33.54,0ZM22.94,27.19c.12.1.24.2.36.3-2.38,1.58-5.23,2.51-8.3,2.51C6.71,30,0,23.28,0,15S6.71,0,15,0c3.07,0,5.93.92,8.3,2.51-.12.1-.25.2-.36.3-3.53,3.07-5.56,7.52-5.56,12.19s2.03,9.12,5.56,12.19ZM48.07,24.29v-.58h-.15l-.17.4-.18-.4h-.15v.58h.11v-.44l.16.38h.11l.16-.38v.44h.11ZM47.1,24.29v-.48h.2v-.1h-.5v.1h.2v.48h.11Z"/>
    </g>
  </g>
</svg>